HIERARCHY
ROOT Hips
{
	OFFSET -0.001795 -0.223333 0.028219
	CHANNELS 6 Xposition Yposition Zposition Zrotation Yrotation Xrotation 
	JOINT LeftUpLeg
	{
		OFFSET 0.069520 -0.091406 -0.006815
		CHANNELS 3 Zrotation Yrotation Xrotation
		JOINT LeftLeg
		{
			OFFSET 0.034277 -0.375199 -0.004496
			CHANNELS 3 Zrotation Yrotation Xrotation
			JOINT LeftFoot
			{
				OFFSET -0.013596 -0.397961 -0.043693
				CHANNELS 3 Zrotation Yrotation Xrotation
				JOINT LeftToe
				{
					OFFSET 0.026358 -0.055791 0.119288
					CHANNELS 3 Zrotation Yrotation Xrotation
					End Site
					{
						OFFSET 0.000000 0.000000 0.000000
					}
				}
			}
		}
	}
	JOINT RightUpLeg
	{
		OFFSET -0.067670 -0.090522 -0.004320
		CHANNELS 3 Zrotation Yrotation Xrotation
		JOINT RightLeg
		{
			OFFSET -0.038290 -0.382569 -0.008850
			CHANNELS 3 Zrotation Yrotation Xrotation
			JOINT RightFoot
			{
				OFFSET 0.015774 -0.398415 -0.042312
				CHANNELS 3 Zrotation Yrotation Xrotation
				JOINT RightToe
				{
					OFFSET -0.025372 -0.048144 0.123348
					CHANNELS 3 Zrotation Yrotation Xrotation
					End Site
					{
						OFFSET 0.000000 0.000000 0.000000
					}
				}
			}
		}
	}
	JOINT Spine
	{
		OFFSET -0.002533 0.108963 -0.026696
		CHANNELS 3 Zrotation Yrotation Xrotation
		JOINT Spine1
		{
			OFFSET 0.005487 0.135180 0.001092
			CHANNELS 3 Zrotation Yrotation Xrotation
			JOINT Spine2
			{
				OFFSET 0.001457 0.052922 0.025425
				CHANNELS 3 Zrotation Yrotation Xrotation
				JOINT Neck
				{
					OFFSET -0.002778 0.213870 -0.042857
					CHANNELS 3 Zrotation Yrotation Xrotation
					JOINT Head
					{
						OFFSET 0.005152 0.064970 0.051349
						CHANNELS 3 Zrotation Yrotation Xrotation
						End Site
						{
							OFFSET 0.000000 0.000000 0.000000
						}
					}
				}
				JOINT LeftShoulder
				{
					OFFSET 0.078845 0.121749 -0.034090
					CHANNELS 3 Zrotation Yrotation Xrotation
					JOINT LeftArm
					{
						OFFSET 0.090977 0.030469 -0.008868
						CHANNELS 3 Zrotation Yrotation Xrotation
						JOINT LeftForeArm
						{
							OFFSET 0.259612 -0.012772 -0.027456
							CHANNELS 3 Zrotation Yrotation Xrotation
							JOINT LeftHand
							{
								OFFSET 0.249234 0.008986 -0.001171
								CHANNELS 3 Zrotation Yrotation Xrotation
								End Site
								{
									OFFSET 0.000000 0.000000 0.000000
								}
							}
						}
					}
				}
				JOINT RightShoulder
				{
					OFFSET -0.081759 0.118833 -0.038615
					CHANNELS 3 Zrotation Yrotation Xrotation
					JOINT RightArm
					{
						OFFSET -0.096012 0.032551 -0.009143
						CHANNELS 3 Zrotation Yrotation Xrotation
						JOINT RightForeArm
						{
							OFFSET -0.253742 -0.013329 -0.021401
							CHANNELS 3 Zrotation Yrotation Xrotation
							JOINT RightHand
							{
								OFFSET -0.255298 0.007772 -0.005559
								CHANNELS 3 Zrotation Yrotation Xrotation
								End Site
								{
									OFFSET 0.000000 0.000000 0.000000
								}
							}
						}
					}
				}
			}
		}
	}
}
MOTION
Frames: 7
Frame Time: 0.050000
0.000000 0.936392 0.000000 -0.643898 -6.762759 -0.818193 4.774304 0.109947 1.502168 -1.083353 0.174385 -1.750834 4.795130 11.345325 8.366633 0.000000 0.000000 0.000000 -5.623341 0.315961 -2.274219 2.542868 -0.155162 3.558678 -5.243072 -14.346296 6.487039 0.000000 0.000000 0.000000 0.133780 0.008177 -0.216277 -2.698386 1.274392 -1.061411 1.084689 1.628927 9.849660 3.075543 -1.539041 -10.884107 0.000000 0.000000 0.000000 -23.924501 -9.141725 4.073281 -57.812865 -4.762691 -5.347077 -4.602411 -39.616413 3.715507 0.000000 0.000000 0.000000 11.823276 16.990450 6.508633 36.698084 33.575233 5.737093 175.159743 70.266763 177.699400 0.000000 0.000000 0.000000 
-0.000653 0.934617 -0.000222 -0.569946 -7.128886 -0.460865 4.447453 0.151288 2.175178 -0.878826 0.178838 -2.748727 5.359334 12.254220 7.709067 0.000000 0.000000 0.000000 -6.082247 0.325831 -2.026342 2.897841 -0.219048 2.327821 -4.559711 -13.173784 7.207551 0.000000 0.000000 0.000000 -0.389537 0.045771 -1.070260 -2.908599 1.377170 -0.865232 1.897637 1.098520 10.174712 2.796035 -1.259604 -12.879542 0.000000 0.000000 0.000000 -23.825148 -7.922585 3.633239 -57.985914 -3.812564 -5.880960 -5.114845 -41.880311 4.285317 0.000000 0.000000 0.000000 10.606206 17.911426 6.698687 33.860568 37.528906 6.163288 -179.534177 68.291011 -175.037173 0.000000 0.000000 0.000000 
-0.000898 0.934822 -0.000453 -0.083802 -5.709005 -0.424319 3.990668 0.084282 1.275444 -0.495477 0.093040 -1.174273 4.742291 11.145908 7.097739 0.000000 0.000000 0.000000 -6.468580 0.328054 -2.306443 2.522671 -0.168633 3.193895 -5.284750 -14.526401 7.151202 0.000000 0.000000 0.000000 -0.500090 0.051440 -1.231976 -2.838915 1.349848 -0.770571 1.077561 1.130833 9.131562 4.180502 -2.606441 -8.001626 0.000000 0.000000 0.000000 -24.241874 -8.875344 3.856729 -56.789498 -3.190514 -5.928510 -3.556350 -39.647419 3.293015 0.000000 0.000000 0.000000 12.139404 18.746178 7.371775 28.618754 37.995003 4.976730 -176.107010 65.267306 -168.776145 0.000000 0.000000 0.000000 
-0.001108 0.933757 -0.000673 0.006015 -5.601808 -0.795348 3.677252 0.091533 1.307997 0.023857 0.025791 -0.881046 4.861936 11.423243 7.541078 0.000000 0.000000 0.000000 -6.521540 0.323082 -2.333449 2.883740 -0.201213 3.787855 -5.689372 -15.201475 6.513449 0.000000 0.000000 0.000000 -0.421078 0.064847 -1.582623 -3.382504 1.626950 -0.167359 1.407917 0.573352 9.050959 4.513606 -2.877390 -8.076938 0.000000 0.000000 0.000000 -23.470790 -9.118926 4.156742 -58.081643 -2.671215 -6.311273 -1.585808 -40.473176 2.719675 0.000000 0.000000 0.000000 10.386617 18.866481 7.174349 25.624526 40.615233 4.681794 -171.084520 63.174993 -160.510724 0.000000 0.000000 0.000000 
-0.001208 0.934126 -0.000898 0.078249 -5.383879 -1.120311 3.374044 0.075869 1.023307 0.297884 -0.037623 0.051382 5.076975 11.791326 7.347885 0.000000 0.000000 0.000000 -6.639072 0.301860 -1.954866 2.622843 -0.169835 3.827537 -5.374703 -14.552658 6.441970 0.000000 0.000000 0.000000 -0.441330 0.052884 -1.305024 -3.195183 1.537578 -0.166039 1.110514 0.470839 8.834283 4.983562 -3.163455 -8.459592 0.000000 0.000000 0.000000 -23.511026 -9.837105 4.556282 -57.959685 -2.123005 -6.544432 -0.031192 -41.075914 2.171200 0.000000 0.000000 0.000000 9.181646 19.330515 7.291595 22.302875 41.977773 3.934775 -168.747423 61.838343 -156.130240 0.000000 0.000000 0.000000 
-0.001248 0.934135 -0.001189 -0.083414 -5.187254 -0.978285 3.596519 0.058182 0.814805 0.124625 -0.014663 -0.007976 5.146748 11.932595 7.415265 0.000000 0.000000 0.000000 -6.517881 0.306956 -2.170995 2.830673 -0.192993 4.062916 -5.383392 -14.551000 6.368743 0.000000 0.000000 0.000000 -0.589160 0.060994 -1.530790 -3.042658 1.449567 -0.774941 1.296793 0.361559 9.497949 5.263446 -3.318077 -9.030954 0.000000 0.000000 0.000000 -23.500135 -9.642601 4.487036 -58.452255 -2.168104 -6.643544 1.021413 -41.387133 1.841305 0.000000 0.000000 0.000000 7.665912 19.719592 7.334233 20.264257 43.426924 3.451612 -162.143025 59.643840 -143.801113 0.000000 0.000000 0.000000 
-0.001222 0.934597 -0.001567 -0.086987 -4.923284 -0.925780 3.549551 0.025415 0.344708 0.148045 -0.031977 0.431488 5.145316 11.904671 7.130377 0.000000 0.000000 0.000000 -6.444504 0.308154 -2.311826 2.763822 -0.177868 4.483652 -5.281179 -14.261559 5.965416 0.000000 0.000000 0.000000 -0.762127 0.066213 -1.704422 -2.599251 1.239243 -0.761622 0.906161 0.351617 9.221543 5.827848 -3.606150 -9.728976 0.000000 0.000000 0.000000 -23.240301 -9.412150 4.262943 -59.457403 -2.020909 -6.781963 3.280632 -41.484548 0.994392 0.000000 0.000000 0.000000 7.299403 19.942790 7.423303 20.057542 45.761870 3.722570 -156.454260 58.193130 -133.034717 0.000000 0.000000 0.000000 
